<?xml version="1.0" encoding="UTF-8"?>
<svg version="1.1" xmlns="http://www.w3.org/2000/svg" width="800" height="800">
<path d="M0 0 C0.62245605 0.52335938 1.24491211 1.04671875 1.88623047 1.5859375 C15.13167754 12.73404141 27.62186968 24.53091782 39.875 36.75 C40.42129059 37.29361176 40.96758118 37.83722351 41.53042603 38.39730835 C47.57252999 44.41694632 53.48929804 50.4827686 59 57 C59.845625 57.96421875 60.69125 58.9284375 61.5625 59.921875 C80.56212478 81.96631144 97.57504567 106.16341132 111 132 C111.3496582 132.66370605 111.69931641 133.32741211 112.05957031 134.01123047 C129.78891292 167.78338498 141.04407348 204.19580923 139.9375 242.625 C139.91780151 243.94939087 139.91780151 243.94939087 139.89770508 245.30053711 C139.71498378 249.07838326 139.60461157 251.27750819 137.13671875 254.2265625 C132.44774537 256.87761345 127.70582743 259.36696855 122.875 261.75 C121.81708252 262.2749707 120.75916504 262.79994141 119.66918945 263.34082031 C112.91678479 266.65693704 106.11420681 269.8150239 99.1875 272.75 C98.00679932 273.25225098 98.00679932 273.25225098 96.80224609 273.76464844 C93.72765679 275.03439436 91.35924075 276 88 276 C87.63201294 274.66714966 87.63201294 274.66714966 87.2565918 273.30737305 C69.81994112 210.71499068 38.73710997 156.88842888 -5 109 C-5.86367188 108.04351563 -6.72734375 107.08703125 -7.6171875 106.1015625 C-15.63641359 97.24506222 -23.82492691 88.55228901 -32.9296875 80.79296875 C-35.3827411 78.66853176 -37.74703147 76.45811363 -40.125 74.25 C-45.27131512 69.55735454 -50.64376636 65.24775412 -56.1574707 60.99707031 C-58.6051941 59.09984158 -61.02576936 57.17645789 -63.42016602 55.21240234 C-72.33359629 47.91245616 -81.56366212 41.32580861 -91.1875 35 C-92.26791061 34.28565796 -92.26791061 34.28565796 -93.37014771 33.55688477 C-104.7255666 26.04963628 -116.13242307 18.67879209 -128 12 C-128.95793457 11.46004395 -129.91586914 10.92008789 -130.90283203 10.36376953 C-196.93293071 -26.57607311 -271.9194308 -51.1394603 -348 -53 C-348.85384277 -53.02191406 -349.70768555 -53.04382813 -350.58740234 -53.06640625 C-384.68290612 -53.80480373 -417.63923391 -49.45204991 -450.50170898 -40.57910156 C-453 -40 -453 -40 -456 -40 C-458.01853863 -50.27720989 -459.08185601 -60.47443409 -459.77441406 -70.91748047 C-459.924309 -72.9657202 -460.10319472 -75.01205229 -460.31152344 -77.05517578 C-461.93810859 -93.07937803 -461.93810859 -93.07937803 -458.875 -97.6953125 C-455.75189338 -100.73355209 -452.05076582 -102.45711564 -448.06591797 -104.11865234 C-445.98654921 -105.00573829 -444.02443294 -106.00936757 -442.03515625 -107.08203125 C-416.4458638 -120.77739786 -388.7532532 -127.29011999 -360 -130 C-358.865625 -130.11214844 -357.73125 -130.22429687 -356.5625 -130.33984375 C-263.42948571 -138.06565062 -168.04467025 -105.86088532 0 0 Z " fill="#4DC5A2" transform="translate(466,487)"/>
<path d="M0 0 C0.9173291 0.53915039 1.8346582 1.07830078 2.77978516 1.63378906 C25.25308496 14.90866035 47.08865591 29.37633189 68 45 C68.57814453 45.43183594 69.15628906 45.86367188 69.75195312 46.30859375 C86.82368295 59.12736632 103.41707367 72.75596581 119.05078125 87.296875 C121.18973737 89.28144694 123.38385789 91.1860899 125.6015625 93.08203125 C130.78604493 97.60196232 135.62178527 102.47192877 140.47290039 107.3425293 C142.05959946 108.93458966 143.65157742 110.5212299 145.24414062 112.10742188 C150.70703723 117.5667497 155.98917929 123.11893815 161 129 C162.45445517 130.60768373 163.91220895 132.21239715 165.375 133.8125 C183.33928406 153.77281563 199.40003857 175.85173232 213 199 C213.33386719 199.56090332 213.66773438 200.12180664 214.01171875 200.69970703 C233.97429469 234.38191579 249.41067279 271.7131921 249.3125 311.375 C249.32861328 312.66921875 249.34472656 313.9634375 249.36132812 315.296875 C249.36850556 329.68044908 246.45345618 342.70616458 241 356 C240.68933594 356.78632812 240.37867188 357.57265625 240.05859375 358.3828125 C237.42325842 363.9841919 233.23378294 368.13726554 228.9375 372.5 C228.32334229 373.12455078 227.70918457 373.74910156 227.07641602 374.39257812 C226.48272217 374.97458984 225.88902832 375.55660156 225.27734375 376.15625 C224.74359131 376.68025391 224.20983887 377.20425781 223.65991211 377.74414062 C221.79156524 379.15769796 220.28794035 379.58927223 218 380 C217.86013672 379.25766113 217.72027344 378.51532227 217.57617188 377.75048828 C204.00379923 306.69191673 169.70064273 245.78515581 123.1875 191.125 C122.75066895 190.60881104 122.31383789 190.09262207 121.86376953 189.56079102 C112.71982094 178.88209214 102.95317486 168.78648316 92.99853516 158.86816406 C91.23351456 157.1085652 89.47398867 155.34359603 87.71484375 153.578125 C81.97824596 147.83780365 76.20156663 142.24204646 70 137 C68.80795578 135.95533461 67.61784536 134.90845846 66.4296875 133.859375 C58.77029958 127.14501113 50.96753304 120.69437855 42.90136719 114.47607422 C40.85217663 112.88524138 38.81995322 111.27427688 36.7890625 109.66015625 C26.87593498 101.81162607 16.70633576 94.48905628 6.19287109 87.46679688 C4.19106336 86.12780101 2.197612 84.77747899 0.20703125 83.421875 C-77.61342207 30.63361471 -168.10558175 -6.84806131 -274 -21 C-275.02125977 -21.13277344 -276.04251953 -21.26554687 -277.09472656 -21.40234375 C-308.92497061 -25.41635965 -343.30043674 -24.89411844 -375 -20 C-376.12519043 -19.82839355 -377.25038086 -19.65678711 -378.40966797 -19.47998047 C-400.14663222 -16.04879652 -421.25990693 -10.3180491 -442 -3 C-439.3439643 -26.01046313 -429.84717989 -41.0197308 -411.9453125 -55.46484375 C-408.71623273 -57.80243458 -405.41919732 -59.95619746 -402 -62 C-401.32791504 -62.4031543 -400.65583008 -62.80630859 -399.96337891 -63.22167969 C-325.34524994 -107.05919867 -222.04336945 -88.37414886 0 0 Z " fill="#6ECC85" transform="translate(457,308)"/>
<path d="M0 0 C1.4377478 0.00273422 1.4377478 0.00273422 2.90454102 0.00552368 C18.96801546 0.05669292 34.66145206 0.88122832 50.5625 3.3125 C51.66239258 3.47347168 52.76228516 3.63444336 53.89550781 3.80029297 C111.24983908 12.39106403 166.17260611 34.25030068 215.5625 64.3125 C216.31031738 64.76189941 217.05813477 65.21129883 217.82861328 65.67431641 C234.53824176 75.72047587 250.42331068 87.03696566 265.5625 99.3125 C266.51253906 100.06917969 267.46257812 100.82585937 268.44140625 101.60546875 C274.3614997 106.3634386 279.98849998 111.36524964 285.54296875 116.5390625 C287.78227265 118.61947003 290.07533884 120.625707 292.390625 122.62109375 C296.82138422 126.48297185 300.98151269 130.58401411 305.125 134.75 C305.84107422 135.46220703 306.55714844 136.17441406 307.29492188 136.90820312 C311.92374536 141.54545031 316.30406349 146.33458663 320.5625 151.3125 C321.45162286 152.33350758 322.34093059 153.35435422 323.23046875 154.375 C352.96671803 189.04423947 377.12980032 229.3948778 389.0625 273.6875 C389.3303833 274.66912109 389.5982666 275.65074219 389.87426758 276.66210938 C390.11169678 277.58572266 390.34912598 278.50933594 390.59375 279.4609375 C390.80580078 280.27739746 391.01785156 281.09385742 391.23632812 281.93505859 C391.60671321 284.63476664 391.23247868 286.68686056 390.5625 289.3125 C364.73633482 294.37733803 338.95271351 298.66858984 312.5625 298.3125 C312.07523437 297.40113281 311.58796875 296.48976563 311.0859375 295.55078125 C298.72203511 272.81147176 283.52772476 251.82115558 266.5625 232.3125 C265.95019531 231.59964844 265.33789062 230.88679687 264.70703125 230.15234375 C253.75235217 217.48030405 242.34165599 205.16814981 229.5625 194.3125 C228.56992187 193.44238281 227.57734375 192.57226562 226.5546875 191.67578125 C149.54023463 124.34853958 49.87407884 86.03667628 -52.4375 86.3125 C-82.4375 32.29948482 -82.4375 32.29948482 -82.4375 12.3125 C-71.99252177 9.1203125 -61.54348964 6.13373318 -50.8125 4.0625 C-50.05300049 3.91200195 -49.29350098 3.76150391 -48.51098633 3.60644531 C-32.43819505 0.64999512 -16.30663737 -0.06485837 0 0 Z " fill="#2FBFBD" transform="translate(105.4375,492.6875)"/>
<path d="M0 0 C0.71609436 0.00093658 1.43218872 0.00187317 2.16998291 0.00283813 C82.43901141 0.22790806 161.43306071 24.69002625 233.41064453 58.84570312 C236.0357543 60.08625371 238.66941278 61.30536677 241.30859375 62.515625 C253.6005228 68.18251105 265.44268447 74.57742165 277.25 81.1875 C278.55324219 81.91259766 278.55324219 81.91259766 279.8828125 82.65234375 C298.47102193 93.01344538 316.73457067 104.09035373 334.25 116.1875 C334.96542969 116.68040527 335.68085937 117.17331055 336.41796875 117.68115234 C347.88861246 125.59839012 359.19836565 133.69430299 370.25 142.1875 C370.85537598 142.6525293 371.46075195 143.11755859 372.08447266 143.59667969 C379.60363705 149.39375869 386.92905283 155.38470588 394.14453125 161.5546875 C397.09420349 164.07088217 400.10470418 166.50642969 403.125 168.9375 C406.80156323 171.92770049 410.21057575 175.01505583 413.49194336 178.43041992 C415.13642581 180.0739889 416.83098461 181.56272604 418.609375 183.05859375 C424.33738763 188.03798832 429.65012455 193.43832519 435.00463867 198.81176758 C436.80862085 200.62110933 438.61788665 202.42504319 440.42773438 204.22851562 C446.24997629 210.04745178 451.92075553 215.90787841 457.25 222.1875 C458.6632355 223.7323126 460.07940409 225.27445325 461.5 226.8125 C466.59340588 232.45934897 471.24966587 238.41040288 475.89013672 244.42919922 C477.1797111 246.09661658 478.48039842 247.75460773 479.78515625 249.41015625 C507.12634739 284.2537011 529.73925222 323.93577289 540.25 367.1875 C540.42789063 367.90583008 540.60578125 368.62416016 540.7890625 369.36425781 C545.25953632 388.2662017 547.95814043 416.54400999 538.25 434.1875 C535.63465517 432.87982758 535.54240199 431.85617816 534.5078125 429.15625 C534.00181519 427.86581787 534.00181519 427.86581787 533.4855957 426.54931641 C532.93585083 425.13271729 532.93585083 425.13271729 532.375 423.6875 C516.76479025 384.6827807 494.75594688 349.03956676 468.75 316.125 C468.29061035 315.54266602 467.8312207 314.96033203 467.35791016 314.36035156 C460.90632999 306.2027711 454.35360145 298.19091754 447.34765625 290.5 C445.55492554 288.52365628 443.80204773 286.5229327 442.0625 284.5 C433.2092644 274.37625451 423.86709325 264.71017106 414.375 255.1875 C413.59092773 254.39883545 412.80685547 253.6101709 411.99902344 252.79760742 C407.82609697 248.63573682 403.57013067 244.64055173 399.10351562 240.79589844 C396.31283964 238.37427391 393.63216511 235.83970485 390.9375 233.3125 C386.19366131 228.90398747 381.34630526 224.69496136 376.29296875 220.640625 C374.00496407 218.79612315 371.74088899 216.93372281 369.48828125 215.046875 C358.69704502 206.02608601 347.58045766 197.51818737 336.25 189.1875 C335.49074219 188.62675781 334.73148438 188.06601562 333.94921875 187.48828125 C267.6918556 138.63653013 193.75365983 100.21051535 -66.6875 40.9375 C-67.49394958 40.93549591 -68.30039917 40.93349182 -69.13128662 40.931427 C-85.25908731 40.92175403 -101.15476379 42.1371601 -117.18457031 43.82373047 C-122.36711477 44.35248911 -127.55673901 44.77936248 -132.75 45.1875 C-108.0894956 14.83610997 -66.96268909 5.06408592 -29.75 1.1875 C-19.83369023 0.27778116 -9.95479271 -0.01708338 0 0 Z " fill="#92D365" transform="translate(236.75,94.8125)"/>
<path d="M0 0 C1.44731003 -0.00101212 1.44731003 -0.00101212 2.92385864 -0.00204468 C95.51578598 0.10006018 186.24076859 32.524642 260.125 94.25 C261.0840625 95.0234375 262.043125 95.796875 263.03125 96.59375 C271.47801318 103.50473805 279.21060987 111.11981592 286.9375 118.8125 C287.74105927 119.60829468 287.74105927 119.60829468 288.56085205 120.42016602 C294.83183105 126.64335927 300.73602731 132.95644627 306.22460938 139.89038086 C308.00631463 142.10263436 309.86649534 144.1823182 311.8125 146.25 C350.03529929 188.82150101 381.17227689 250.11321776 391.125 306.25 C387.65202031 302.86322902 384.46104825 299.36658138 381.375 295.625 C380.9423584 295.10212402 380.5097168 294.57924805 380.06396484 294.04052734 C377.27563984 290.66582951 374.51274277 287.27066203 371.75 283.875 C357.15929189 266.04474656 341.45224443 249.49126502 325.1875 233.1875 C324.55353302 232.55085419 323.91956604 231.91420837 323.26638794 231.25827026 C316.72980606 224.70075982 310.20024595 218.23188795 303.125 212.25 C301.51731627 210.79554483 299.91260285 209.33779105 298.3125 207.875 C293.99374343 203.97758553 289.54737949 200.27699645 285.0234375 196.62109375 C282.49594273 194.55345315 280.01149621 192.44421934 277.5378418 190.31274414 C270.36448953 184.14836682 262.89938975 178.44939652 255.28466797 172.84326172 C253.08079405 171.21738774 250.88552503 169.58041537 248.69140625 167.94140625 C228.75851901 153.09111829 208.34592827 139.19422351 187.125 126.25 C186.11179687 125.62738281 185.09859375 125.00476563 184.0546875 124.36328125 C169.38190988 115.35531018 154.47288482 106.91731858 139.24023438 98.89355469 C136.27370565 97.32845505 133.31582666 95.74809389 130.359375 94.1640625 C60.3889832 56.88744567 -17.30261413 29.94589121 -95.91162109 18.84692383 C-97.17570801 18.66411865 -98.43979492 18.48131348 -99.7421875 18.29296875 C-100.85706543 18.13852295 -101.97194336 17.98407715 -103.12060547 17.82495117 C-105.875 17.25 -105.875 17.25 -108.875 15.25 C-84.90685217 7.81954539 -59.83799523 3.52657838 -34.875 1.25 C-33.85535156 1.1557373 -32.83570313 1.06147461 -31.78515625 0.96435547 C-21.19737212 0.09397733 -10.6184299 0.00672247 0 0 Z " fill="#A4D755" transform="translate(403.875,8.75)"/>
<path d="M0 0 C87.09331479 6.51485426 167.90017817 44.11228922 232 103 C232.58604004 103.53560547 233.17208008 104.07121094 233.77587891 104.62304688 C247.48253404 117.16870846 247.48253404 117.16870846 252.4140625 123.1015625 C254.288458 125.34529701 256.26785482 127.47593733 258.25 129.625 C285 159.36737288 285 159.36737288 285 166 C240.00251728 163.47862562 194.55281252 149.21859611 154 130 C153.04947754 129.55156738 152.09895508 129.10313477 151.11962891 128.64111328 C116.81436451 112.32010604 85.45359055 90.70756792 57.3828125 65.1640625 C55.8045981 63.73073335 54.21610715 62.3086322 52.6171875 60.8984375 C42.79988797 52.21754563 33.45885809 43.01471571 25 33 C24.13246094 32.01 23.26492187 31.02 22.37109375 30 C16.61360137 23.41413274 11.08842792 16.68083581 5.75 9.75 C5.17685059 9.01080322 4.60370117 8.27160645 4.01318359 7.51000977 C3.48805176 6.82092529 2.96291992 6.13184082 2.421875 5.421875 C1.95362305 4.80924805 1.48537109 4.19662109 1.00292969 3.56542969 C0 2 0 2 0 0 Z " fill="#16BAD2" transform="translate(81,623)"/>
</svg>
