<?xml version="1.0" encoding="UTF-8"?>
<svg version="1.1" xmlns="http://www.w3.org/2000/svg" width="400" height="400">
<path d="M0 0 C2.87438826 -0.00436064 5.74722084 -0.04076038 8.62133789 -0.07861328 C29.17342364 -0.20242169 48.33879374 3.89483336 66.20922852 14.37060547 C67.60459451 15.16309556 69.00035674 15.95488892 70.39672852 16.74560547 C71.32485352 17.28185547 72.25297852 17.81810547 73.20922852 18.37060547 C73.20922852 19.03060547 73.20922852 19.69060547 73.20922852 20.37060547 C74.04454102 20.7321875 74.04454102 20.7321875 74.89672852 21.10107422 C77.70580194 22.64321757 79.83621801 24.530756 82.20922852 26.68310547 C83.05485352 27.44236328 83.90047852 28.20162109 84.77172852 28.98388672 C87.15988062 31.32228566 89.25010881 33.66321088 91.20922852 36.37060547 C91.20922852 37.03060547 91.20922852 37.69060547 91.20922852 38.37060547 C91.86922852 38.37060547 92.52922852 38.37060547 93.20922852 38.37060547 C105.42859552 55.18599565 110.98370882 74.13406468 114.20922852 94.37060547 C114.46941772 95.74140259 114.46941772 95.74140259 114.73486328 97.13989258 C115.69732655 103.69484696 115.45417667 110.37956879 115.45922852 116.99560547 C115.45990326 117.78471313 115.460578 118.5738208 115.46127319 119.38684082 C115.44460616 131.65066534 114.72991407 143.34249857 112.20922852 155.37060547 C111.84158295 157.26374574 111.47442022 159.15697982 111.10766602 161.05029297 C108.68609904 173.15812785 105.51291618 184.79976241 101.20922852 196.37060547 C100.97091309 197.01932617 100.73259766 197.66804687 100.48706055 198.33642578 C96.76273493 208.37191128 92.20332014 217.91355516 87.20922852 227.37060547 C86.89759766 227.96728027 86.5859668 228.56395508 86.26489258 229.17871094 C77.23783916 246.30145512 64.64469218 263.47877642 49.20922852 275.37060547 C48.54922852 275.37060547 47.88922852 275.37060547 47.20922852 275.37060547 C47.20922852 276.03060547 47.20922852 276.69060547 47.20922852 277.37060547 C33.01461819 285.90809373 18.3309386 293.50014593 1.20922852 289.37060547 C-5.99761816 286.75672325 -5.99761816 286.75672325 -8.01342773 283.23388672 C-8.39821289 282.3115625 -8.39821289 282.3115625 -8.79077148 281.37060547 C-9.45077148 281.37060547 -10.11077148 281.37060547 -10.79077148 281.37060547 C-13.22123339 275.04223295 -14.38137174 269.13275995 -14.79077148 262.37060547 C-15.45077148 263.36060547 -16.11077148 264.35060547 -16.79077148 265.37060547 C-17.45077148 265.37060547 -18.11077148 265.37060547 -18.79077148 265.37060547 C-19.03827148 266.09248047 -19.28577148 266.81435547 -19.54077148 267.55810547 C-20.9134674 270.64667128 -22.51430444 272.88071964 -24.79077148 275.37060547 C-25.45077148 275.37060547 -26.11077148 275.37060547 -26.79077148 275.37060547 C-26.79077148 276.03060547 -26.79077148 276.69060547 -26.79077148 277.37060547 C-27.45077148 277.37060547 -28.11077148 277.37060547 -28.79077148 277.37060547 C-29.03827148 277.98935547 -29.28577148 278.60810547 -29.54077148 279.24560547 C-30.99705788 281.72129234 -32.16889655 282.32185549 -34.79077148 283.37060547 C-34.79077148 284.03060547 -34.79077148 284.69060547 -34.79077148 285.37060547 C-35.45077148 285.37060547 -36.11077148 285.37060547 -36.79077148 285.37060547 C-36.79077148 286.03060547 -36.79077148 286.69060547 -36.79077148 287.37060547 C-37.45077148 287.37060547 -38.11077148 287.37060547 -38.79077148 287.37060547 C-38.79077148 288.03060547 -38.79077148 288.69060547 -38.79077148 289.37060547 C-40.16088867 290.60400391 -40.16088867 290.60400391 -42.08764648 291.97998047 C-42.79324707 292.48464844 -43.49884766 292.98931641 -44.22583008 293.50927734 C-44.98976074 294.04101562 -45.75369141 294.57275391 -46.54077148 295.12060547 C-47.31630371 295.66265625 -48.09183594 296.20470703 -48.89086914 296.76318359 C-62.86422064 306.36968212 -77.13991718 312.54272441 -94.22827148 312.55810547 C-94.94047852 312.57035156 -95.65268555 312.58259766 -96.38647461 312.59521484 C-105.8747127 312.62106835 -114.74951186 310.12407665 -121.77514648 303.49951172 C-129.95255777 293.97667165 -131.64030813 282.55264043 -130.79077148 270.37060547 C-130.54318545 267.67557059 -130.21042965 265.04592626 -129.79077148 262.37060547 C-130.18006836 262.94166016 -130.56936523 263.51271484 -130.97045898 264.10107422 C-134.56982484 269.31766667 -138.2788153 274.44250619 -142.10327148 279.49560547 C-142.75175049 280.36608521 -142.75175049 280.36608521 -143.41333008 281.25415039 C-144.49074332 282.66462467 -145.63551034 284.0231528 -146.79077148 285.37060547 C-147.45077148 285.37060547 -148.11077148 285.37060547 -148.79077148 285.37060547 C-149.0550293 285.95938477 -149.31928711 286.54816406 -149.59155273 287.15478516 C-150.83446092 289.45133131 -152.1408363 290.97893713 -153.97827148 292.82373047 C-154.59444336 293.44248047 -155.21061523 294.06123047 -155.84545898 294.69873047 C-156.48741211 295.33294922 -157.12936523 295.96716797 -157.79077148 296.62060547 C-158.43272461 297.27029297 -159.07467773 297.91998047 -159.73608398 298.58935547 C-160.6603418 299.50974609 -160.6603418 299.50974609 -161.60327148 300.44873047 C-162.1665918 301.00979492 -162.72991211 301.57085937 -163.31030273 302.14892578 C-164.79077148 303.37060547 -164.79077148 303.37060547 -166.79077148 303.37060547 C-166.79077148 304.03060547 -166.79077148 304.69060547 -166.79077148 305.37060547 C-167.45077148 305.37060547 -168.11077148 305.37060547 -168.79077148 305.37060547 C-168.79077148 306.03060547 -168.79077148 306.69060547 -168.79077148 307.37060547 C-171.09236342 309.48727877 -173.73182609 311.20406824 -176.29077148 312.99560547 C-177.05599121 313.5325 -177.82121094 314.06939453 -178.60961914 314.62255859 C-189.11249972 321.83020625 -200.55994481 327.69407721 -212.79077148 331.37060547 C-213.88905273 331.72509766 -214.98733398 332.07958984 -216.11889648 332.44482422 C-222.110069 333.90190882 -228.27547736 333.77993285 -234.40698242 333.79614258 C-236.52308172 333.80800629 -238.63622527 333.85726415 -240.75170898 333.90771484 C-252.96449532 334.05307961 -263.7261547 330.94078861 -272.79077148 322.37060547 C-275.81589667 318.91248364 -277.95341514 315.42548688 -279.97827148 311.30810547 C-280.74204102 309.77476562 -280.74204102 309.77476562 -281.52124023 308.21044922 C-283.22951925 304.38916048 -283.9136578 301.19838861 -283.9519043 297.02368164 C-283.96631561 295.74535713 -283.96631561 295.74535713 -283.98101807 294.44120789 C-283.98526794 293.52458878 -283.98951782 292.60796967 -283.99389648 291.66357422 C-283.99959656 290.70598709 -284.00529663 289.74839996 -284.01116943 288.76179504 C-284.0206148 286.73012391 -284.02715158 284.69843748 -284.03100586 282.66674805 C-284.04061644 279.60746064 -284.07160401 276.54887316 -284.10327148 273.48974609 C-284.16442282 262.36888221 -283.65344074 252.17651461 -280.79077148 241.37060547 C-280.55036133 240.43708252 -280.30995117 239.50355957 -280.06225586 238.54174805 C-279.39333649 236.07173068 -278.6724894 233.62751838 -277.91577148 231.18310547 C-277.6523999 230.32563721 -277.38902832 229.46816895 -277.11767578 228.5847168 C-275.05328548 221.98453577 -272.71449365 215.64383459 -269.79077148 209.37060547 C-269.39696289 208.525625 -269.0031543 207.68064453 -268.59741211 206.81005859 C-262.34065387 193.43883354 -255.99151028 180.18550073 -248.10327148 167.68310547 C-247.47098633 166.67799927 -247.47098633 166.67799927 -246.82592773 165.65258789 C-239.64082144 154.32151678 -231.98423368 143.39189355 -223.68920898 132.84716797 C-221.79662925 130.54000527 -221.79662925 130.54000527 -220.79077148 128.37060547 C-220.13077148 128.37060547 -219.47077148 128.37060547 -218.79077148 128.37060547 C-218.52264648 127.79826172 -218.25452148 127.22591797 -217.97827148 126.63623047 C-216.74944513 124.29175913 -215.36554972 122.24655609 -213.79077148 120.12060547 C-213.27514648 119.41419922 -212.75952148 118.70779297 -212.22827148 117.97998047 C-211.75389648 117.44888672 -211.27952148 116.91779297 -210.79077148 116.37060547 C-210.13077148 116.37060547 -209.47077148 116.37060547 -208.79077148 116.37060547 C-208.79077148 115.71060547 -208.79077148 115.05060547 -208.79077148 114.37060547 C-208.13077148 114.37060547 -207.47077148 114.37060547 -206.79077148 114.37060547 C-206.56905273 113.83177734 -206.34733398 113.29294922 -206.11889648 112.73779297 C-204.35132107 109.58734974 -202.00181035 107.10778853 -199.54077148 104.49560547 C-199.01644531 103.93405762 -198.49211914 103.37250977 -197.9519043 102.79394531 C-177.87441014 81.43578795 -177.87441014 81.43578795 -170.79077148 76.37060547 C-170.13077148 76.37060547 -169.47077148 76.37060547 -168.79077148 76.37060547 C-168.79077148 75.71060547 -168.79077148 75.05060547 -168.79077148 74.37060547 C-166.67358398 72.42529297 -166.67358398 72.42529297 -163.91577148 70.24560547 C-162.55838867 69.15892578 -162.55838867 69.15892578 -161.17358398 68.05029297 C-158.79077148 66.37060547 -158.79077148 66.37060547 -156.79077148 66.37060547 C-156.79077148 65.71060547 -156.79077148 65.05060547 -156.79077148 64.37060547 C-155.11108398 62.86279297 -155.11108398 62.86279297 -152.91577148 61.24560547 C-152.19647461 60.70677734 -151.47717773 60.16794922 -150.73608398 59.61279297 C-148.79077148 58.37060547 -148.79077148 58.37060547 -146.79077148 58.37060547 C-146.79077148 57.71060547 -146.79077148 57.05060547 -146.79077148 56.37060547 C-144.67671275 54.79813965 -142.56623912 53.35533529 -140.35327148 51.93310547 C-139.68457031 51.49643555 -139.01586914 51.05976562 -138.3269043 50.60986328 C-136.89315784 49.67504201 -135.45737002 48.74334568 -134.01977539 47.81445312 C-131.80442509 46.37944966 -129.59943213 44.92966086 -127.39624023 43.47607422 C-119.6930974 38.41218654 -111.96733954 33.64046873 -103.79077148 29.37060547 C-102.54085257 28.68010273 -101.29225405 27.98720679 -100.04467773 27.29248047 C-78.88769173 15.62269534 -55.49476637 7.17134741 -31.79077148 2.37060547 C-30.93088623 2.19255371 -30.07100098 2.01450195 -29.18505859 1.83105469 C-19.48295837 0.07303507 -9.83546286 -0.00166378 0 0 Z M-34.79077148 89.37060547 C-36.02627707 91.42279584 -36.02627707 91.42279584 -36.79077148 93.37060547 C-37.45077148 93.37060547 -38.11077148 93.37060547 -38.79077148 93.37060547 C-43.56596522 101.57796971 -44.10500708 110.07675408 -42.79077148 119.37060547 C-40.76617686 126.05010823 -37.03913184 131.74907895 -31.00561523 135.47216797 C-26.49270152 137.30280316 -21.56018539 136.8827573 -16.79077148 136.37060547 C-10.31474075 133.30920912 -6.12070882 127.90537839 -3.41259766 121.33520508 C-2.33384935 117.92700421 -2.25863681 114.61099571 -2.29077148 111.05810547 C-2.30043945 109.93988403 -2.30043945 109.93988403 -2.31030273 108.79907227 C-2.55426561 101.40715768 -4.30605559 95.66549248 -9.79858398 90.47216797 C-14.56333309 86.72718066 -18.37435328 85.00500486 -24.59155273 85.08544922 C-28.37718084 85.57630331 -31.75616052 87.0625915 -34.79077148 89.37060547 Z M31.20922852 89.37060547 C29.97845993 91.42382407 29.97845993 91.42382407 29.20922852 93.37060547 C28.54922852 93.37060547 27.88922852 93.37060547 27.20922852 93.37060547 C22.54662511 102.21706283 21.35357541 111.85182409 24.11547852 121.55419922 C25.04644011 123.89822751 26.03385808 126.14054996 27.20922852 128.37060547 C27.86922852 128.37060547 28.52922852 128.37060547 29.20922852 128.37060547 C29.86922852 129.69060547 30.52922852 131.01060547 31.20922852 132.37060547 C31.86922852 132.37060547 32.52922852 132.37060547 33.20922852 132.37060547 C33.20922852 133.03060547 33.20922852 133.69060547 33.20922852 134.37060547 C38.21276658 137.36315216 43.56022758 136.97043218 49.20922852 136.37060547 C55.02479002 133.67821588 59.8470493 128.58145648 62.35766602 122.66357422 C64.56925419 114.11142364 64.79784103 103.04255444 60.47875977 95.16748047 C57.28259859 90.64368311 53.78646137 86.66763636 48.20922852 85.37060547 C41.89098743 84.5929758 36.34815433 85.37777103 31.20922852 89.37060547 Z " fill="#ABA0F1" transform="translate(283.790771484375,28.62939453125)"/>
<path d="M0 0 C0.33 0.99 0.66 1.98 1 3 C-0.57382947 4.65492374 -2.15942902 6.29866024 -3.75 7.9375 C-4.63171875 8.85402344 -5.5134375 9.77054688 -6.421875 10.71484375 C-8.80176695 12.82429343 -9.9099375 13.66067071 -13 14 C-8.88380164 9.08064098 -4.59589638 4.47352044 0 0 Z " fill="#CCC7E6" transform="translate(100,117)"/>
</svg>
