<?xml version="1.0" encoding="UTF-8"?>
<svg version="1.1" xmlns="http://www.w3.org/2000/svg" width="800" height="800">
<path d="M0 0 C0.89442855 -0.00436032 1.78885711 -0.00872064 2.71038955 -0.0132131 C5.70502178 -0.02415422 8.69919215 -0.01375256 11.69382095 -0.00342751 C13.86339721 -0.00688449 16.03297172 -0.01164933 18.20254254 -0.01760924 C24.16261931 -0.03014279 30.12255213 -0.0239381 36.08262944 -0.01465058 C42.51071989 -0.00787029 48.93878537 -0.01833616 55.36687088 -0.02659035 C67.22994327 -0.03975113 79.09297004 -0.03806602 90.95604511 -0.02985594 C101.9128645 -0.0223102 112.86966704 -0.02033876 123.82648849 -0.02392387 C124.55319014 -0.02415303 125.27989178 -0.02438218 126.02861469 -0.02461828 C128.97846654 -0.02555229 131.92831839 -0.02650749 134.87817023 -0.02749758 C162.54724987 -0.03667384 190.21630024 -0.02835466 217.88537535 -0.01220688 C242.47732162 0.00203588 267.06922128 0.00075093 291.66116714 -0.01358986 C319.28557813 -0.02964516 346.90996328 -0.03602908 374.53437829 -0.02675307 C377.47762441 -0.02579089 380.42087054 -0.02485238 383.36411667 -0.02392387 C384.08882898 -0.02368664 384.81354128 -0.02344941 385.56021457 -0.02320499 C396.5139546 -0.01978961 407.46767597 -0.02378877 418.42141342 -0.03136253 C430.87060225 -0.03992734 443.31972818 -0.03753349 455.76891151 -0.0215203 C462.12478077 -0.01361525 468.48055523 -0.01058402 474.83642387 -0.02046776 C480.64794213 -0.02936864 486.45927719 -0.02455825 492.27077869 -0.0085351 C494.37961243 -0.00516775 496.48846147 -0.00692481 498.59728548 -0.01416247 C501.45131641 -0.02321082 504.30470973 -0.01400421 507.15870667 0 C507.98819319 -0.0070235 508.81767971 -0.014047 509.67230219 -0.02128333 C512.94618785 0.01109223 515.38701383 0.14352552 518.30698133 1.69408739 C520.79757868 4.4512319 520.82767105 6.73499382 520.82767105 10.37752342 C518.4720398 15.19120467 514.70518585 18.60945347 510.90579605 22.30330467 C508.92534736 24.28003072 507.0876341 26.31792118 505.26517105 28.44002342 C502.50404131 31.65194985 499.59411486 34.63364431 496.5737648 37.60017967 C494.76289462 39.44345916 493.07445752 41.35575141 491.39017105 43.31502342 C488.35087454 46.84387105 485.11750258 50.10757369 481.8003273 53.37361717 C479.25429276 55.95998494 476.90745549 58.69287622 474.5425148 61.44392967 C472.32719725 63.94183898 469.95868935 66.25777331 467.57767105 68.59627342 C465.74524618 70.46142017 464.0341397 72.39680088 462.32767105 74.37752342 C460.08209165 76.98399951 457.78215593 79.46686863 455.32767105 81.87752342 C452.89377373 84.26805509 450.61411546 86.72798605 448.39017105 89.31502342 C445.97149326 92.12328689 443.46867423 94.77722935 440.82767105 97.37752342 C438.20726496 99.95761557 435.72443693 102.58855949 433.32767105 105.37752342 C432.16343055 106.71297576 430.99670576 108.04626584 429.82767105 109.37752342 C428.88794449 110.45453514 428.88794449 110.45453514 427.92923355 111.55330467 C427.27696793 112.25842186 426.6247023 112.96353905 425.95267105 113.69002342 C425.09028824 114.64328514 425.09028824 114.64328514 424.21048355 115.61580467 C418.10678709 120.12853763 410.97242779 120.81873853 403.59755707 120.75225353 C402.26476311 120.75834462 402.26476311 120.75834462 400.90504402 120.76455876 C397.93648431 120.77448119 394.9684001 120.76309007 391.99985123 120.75174522 C389.8466242 120.7544866 387.69339852 120.75853934 385.54017615 120.76378888 C379.62989082 120.77437278 373.71975678 120.76624856 367.80947804 120.75503838 C361.43319623 120.7461966 355.05693422 120.75463975 348.68065262 120.7609005 C336.91484609 120.76984162 325.14909445 120.76522382 313.38329149 120.75373668 C302.51607122 120.74319903 291.64886825 120.73866138 280.78164291 120.7400322 C279.70022933 120.74015824 279.70022933 120.74015824 278.596969 120.74028683 C275.67044749 120.74063908 272.74392599 120.74102309 269.81740449 120.74145241 C242.3708619 120.74541656 214.92434992 120.73270293 187.47781609 120.71192585 C163.08710247 120.69354887 138.69641819 120.68774561 114.30569839 120.69319725 C112.73899822 120.69354368 111.17229805 120.69388978 109.60559788 120.69423554 C108.4437821 120.69449203 108.4437821 120.69449203 107.25849529 120.69475371 C103.35963438 120.69560724 99.46077346 120.69643102 95.56191254 120.69722271 C94.40815935 120.69745833 94.40815935 120.69745833 93.23109802 120.69769871 C72.85348055 120.70168691 52.47586591 120.69621587 32.09825015 120.68771142 C29.90622816 120.68680437 27.71420616 120.68589872 25.52218416 120.68499619 C24.06804008 120.68439508 22.61389601 120.68378646 21.15975194 120.68317028 C11.01612568 120.67894646 0.87250497 120.67837165 -9.27112188 120.68027577 C-22.33906262 120.68271659 -35.40696887 120.67844856 -48.47490206 120.66306577 C-54.778226 120.65580673 -61.08150876 120.65175763 -67.3848362 120.65630913 C-73.14945559 120.66037051 -78.91398974 120.65526307 -84.67859617 120.64268305 C-86.76924821 120.63974308 -88.85990823 120.64020552 -90.95055827 120.64432613 C-93.78233497 120.64940278 -96.61382315 120.64228542 -99.44557953 120.63199902 C-100.67581395 120.63859374 -100.67581395 120.63859374 -101.93090159 120.6453217 C-106.08911806 120.61636232 -109.50791942 120.44198292 -113.17232895 118.37752342 C-115.58064989 114.76504202 -115.89593749 113.63877374 -115.17232895 109.37752342 C-113.14242407 106.4278179 -110.65492134 103.94811816 -108.17232895 101.37752342 C-106.85585842 99.90188945 -105.54361596 98.4224764 -104.23482895 96.94002342 C-98.68331527 90.78426336 -92.97906579 84.77259351 -87.28951645 78.74471092 C-83.54904612 74.78103304 -79.82545009 70.80198931 -76.10982895 66.81502342 C-71.30572229 61.66127887 -66.49292349 56.51585025 -61.67232895 51.37752342 C-55.65708167 44.96498427 -49.6528305 38.54231792 -43.65670395 32.11189842 C-41.27418804 29.55708758 -38.88843317 27.00535322 -36.50045395 24.45564842 C-35.89612534 23.80958641 -35.29179672 23.1635244 -34.66915512 22.49788475 C-33.47557634 21.22281212 -32.28045834 19.94917835 -31.0837059 18.67708397 C-28.51756208 15.93974247 -25.98568948 13.19451516 -23.5746727 10.31892967 C-22.82314926 9.43076561 -22.07162582 8.54260155 -21.29732895 7.62752342 C-20.68115707 6.86955467 -20.0649852 6.11158592 -19.43014145 5.33064842 C-13.75314403 0.419751 -7.16526058 -0.06136307 0 0 Z " fill="#A95AEE" transform="translate(197.1723289489746,509.6224765777588)"/>
<path d="M0 0 C0.88094238 -0.00205263 1.76188477 -0.00410527 2.66952237 -0.0062201 C5.65431604 -0.01192454 8.63906407 -0.01042863 11.62386227 -0.00901413 C13.77232048 -0.01159581 15.92077821 -0.01460841 18.06923527 -0.01801753 C23.99896497 -0.02611421 29.92868258 -0.02787858 35.85841715 -0.028615 C42.24375684 -0.03046097 48.62909019 -0.03800605 55.01442623 -0.04475021 C69.71890538 -0.05906353 84.42338207 -0.06486293 99.12786698 -0.06944216 C106.39244631 -0.07177666 113.65702485 -0.07537918 120.92160356 -0.07913754 C145.78299326 -0.09197546 170.64438251 -0.10269376 195.50577545 -0.10614014 C197.06714795 -0.10636177 198.62852045 -0.10658355 200.18989294 -0.10680549 C201.75507225 -0.10702613 203.32025156 -0.10724661 204.88543087 -0.10746694 C208.02553117 -0.10790949 211.16563147 -0.10835661 214.30573177 -0.10880661 C215.08429706 -0.108916 215.86286234 -0.10902539 216.66502051 -0.1091381 C241.90670416 -0.11276825 267.14835908 -0.1286855 292.39003173 -0.15199697 C319.06872884 -0.17659058 345.74740953 -0.19031279 372.42611831 -0.19150805 C375.35466254 -0.19167951 378.28320676 -0.19189494 381.21175098 -0.19214249 C382.2934081 -0.19222614 382.2934081 -0.19222614 383.39691687 -0.19231148 C395.00493912 -0.19346244 406.61293191 -0.20448844 418.22094421 -0.21902954 C429.88894975 -0.23339302 441.5569088 -0.23637982 453.22492171 -0.22858956 C459.54694452 -0.22467647 465.86886819 -0.22564483 472.19087887 -0.23964691 C477.97760058 -0.25234635 483.76414824 -0.25122306 489.55086958 -0.2390562 C491.64517037 -0.23709232 493.73948332 -0.24020938 495.833767 -0.24890056 C498.68027792 -0.25996618 501.52617164 -0.25252321 504.37266541 -0.24050903 C505.18591891 -0.24810423 505.99917241 -0.25569942 506.83706996 -0.26352477 C513.24368861 -0.20514365 519.45201768 0.96444471 524.82257748 4.63020706 C525.31741634 5.15010208 525.81225521 5.6699971 526.3220892 6.20564651 C526.88919613 6.78693314 527.45630306 7.36821976 528.04059505 7.96712112 C528.605285 8.57821732 529.16997494 9.18931351 529.7517767 9.81892776 C530.35578304 10.4474263 530.95978939 11.07592484 531.58209896 11.72346878 C535.20655145 15.52035096 538.72974449 19.40335216 542.12287045 23.40877151 C544.25395155 25.84982806 546.56999759 28.084569 548.88068295 30.35408401 C550.69155312 32.1973635 552.37999023 34.10965576 554.0642767 36.06892776 C556.48295448 38.87719124 558.98577352 41.53113369 561.6267767 44.13142776 C564.89879798 47.35301326 567.91993724 50.71734922 570.91193295 54.19783401 C573.12725049 56.69574332 575.4957584 59.01167765 577.8767767 61.35017776 C580.33312518 63.85038962 582.58987037 66.50823293 584.8767767 69.16267776 C586.56475955 71.06165848 588.31447403 72.85148765 590.1267767 74.63142776 C593.22034313 77.66975194 596.04783176 80.87908097 598.8767767 84.16267776 C600.56475955 86.06165848 602.31447403 87.85148765 604.1267767 89.63142776 C607.22015439 92.6763633 610.09897363 95.85653614 612.91974545 99.15486526 C614.04183983 100.45413245 615.19003184 101.73138942 616.36505795 102.98299026 C619.63704474 106.52829338 621.7370067 109.06084764 621.6267767 114.13142776 C620.3767767 116.94392776 620.3767767 116.94392776 618.6267767 119.13142776 C614.76508739 120.41865753 611.1207561 120.27283782 607.09647751 120.26564884 C606.21070494 120.26800107 605.32493236 120.2703533 604.4123182 120.27277681 C601.4171266 120.27948205 598.42197823 120.27900813 595.42677975 120.27859879 C593.26849606 120.28189646 591.11021298 120.28562182 588.9519307 120.28974026 C582.99972806 120.29977931 577.0475355 120.30348011 571.09532559 120.30612957 C564.6841181 120.31002697 558.27291864 120.31960566 551.86171627 120.32834244 C537.10100028 120.34718726 522.34028453 120.35736508 507.57955941 120.36580312 C500.2871699 120.37000825 492.99478122 120.37523041 485.70239241 120.38048765 C460.74544068 120.39837844 435.78848871 120.41337507 410.83153152 120.42080784 C409.26445028 120.4212826 407.69736903 120.42175849 406.13028778 120.4222355 C405.35314763 120.42247188 404.57600748 120.42270825 403.77531764 120.42295179 C399.83786453 120.424153 395.90041143 120.42536845 391.96295834 120.42659378 C391.1815555 120.42683393 390.40015266 120.42707408 389.59507094 120.42732151 C364.25606778 120.43521569 338.9171114 120.45864965 313.57812867 120.49114972 C286.79566481 120.52543858 260.01322833 120.54515809 233.23074216 120.54845208 C230.29127831 120.54886963 227.35181448 120.54934919 224.41235065 120.54987526 C223.68855869 120.54999845 222.96476672 120.55012164 222.21904166 120.55024857 C210.56530364 120.55258175 198.91161992 120.56824827 187.25790125 120.58871711 C175.54633845 120.60896136 163.83485624 120.61412531 152.12327752 120.60494647 C145.77703872 120.60038983 139.43097642 120.60236729 133.08476162 120.62170792 C127.27711766 120.63925472 121.46978007 120.6384109 115.66213324 120.62281062 C113.55912982 120.62042164 111.45610566 120.62482448 109.35313407 120.63663927 C106.49714254 120.65169303 103.6422457 120.6421306 100.78628159 120.62641239 C99.55807655 120.6417457 99.55807655 120.6417457 98.30505928 120.65738878 C91.35343092 120.57373802 86.18491162 118.44757695 81.0252142 113.77595901 C80.23372982 112.9032637 79.44224545 112.03056839 78.6267767 111.13142776 C77.60380555 110.10879246 76.57479215 109.09217715 75.5408392 108.08064651 C70.23468185 102.82564826 65.00388392 97.58526336 60.1658392 91.88924026 C58.02143576 89.44004852 55.69816449 87.19261221 53.3767767 84.91267776 C50.92042821 82.41246591 48.66368302 79.7546226 46.3767767 77.10017776 C44.68879384 75.20119705 42.93907936 73.41136788 41.1267767 71.63142776 C38.69287937 69.2408961 36.41322111 66.78096514 34.1892767 64.19392776 C31.77059891 61.38566429 29.26777987 58.73172183 26.6267767 56.13142776 C23.35475541 52.90984227 20.33361615 49.54550631 17.34162045 46.06502151 C15.1263029 43.56711221 12.75779499 41.25117788 10.3767767 38.91267776 C7.92042821 36.41246591 5.66368302 33.7546226 3.3767767 31.10017776 C1.68879384 29.20119705 -0.06092064 27.41136788 -1.8732233 25.63142776 C-14.05237738 13.64472082 -14.05237738 13.64472082 -14.7482233 8.19392776 C-14.29034185 4.45456259 -13.27383773 3.43485687 -10.3732233 1.13142776 C-7.12838545 -0.49099116 -3.56524217 -0.007604 0 0 Z " fill="#7489DB" transform="translate(96.37322330474854,339.8685722351074)"/>
<path d="M0 0 C0.8923558 -0.00380567 1.78471159 -0.00761134 2.70410848 -0.01153234 C5.70966776 -0.02188095 8.71503933 -0.01793591 11.72061157 -0.01409245 C13.89101026 -0.01854305 16.06140732 -0.0238565 18.23180199 -0.02996117 C24.20809246 -0.04417245 30.184331 -0.04580387 36.16063595 -0.04536426 C42.60106932 -0.04700967 49.04148113 -0.06007081 55.48190308 -0.07155704 C68.83515605 -0.09370766 82.18839642 -0.10181494 95.54166535 -0.10659205 C96.26744741 -0.10685322 96.99322948 -0.1071144 97.74100494 -0.10738349 C98.46822407 -0.10764376 99.19544319 -0.10790404 99.94469926 -0.1081722 C108.00027459 -0.11125341 116.05584662 -0.11775766 124.11141968 -0.12438488 C148.43469075 -0.1440314 172.75795827 -0.1604372 197.08123779 -0.16326141 C197.85926612 -0.16335547 198.63729444 -0.16344954 199.43889938 -0.16354645 C202.59198308 -0.16392493 205.74506677 -0.16428893 208.89815047 -0.16464943 C211.27142526 -0.16492115 213.64470006 -0.16519783 216.01797485 -0.16547489 C216.80219388 -0.16556291 217.58641291 -0.16565094 218.39439616 -0.16574163 C243.04630138 -0.16864839 267.69812826 -0.19075657 292.3500061 -0.22699833 C320.03519976 -0.2676983 347.72034004 -0.29141977 375.40556526 -0.29172093 C378.35589727 -0.29181775 381.30622927 -0.29198448 384.25656128 -0.29220104 C384.98302882 -0.29224516 385.70949635 -0.29228927 386.45797805 -0.29233472 C398.1624196 -0.29345584 409.86678282 -0.31088263 421.57119912 -0.33402036 C433.32728634 -0.35682973 445.08325838 -0.36068439 456.83935976 -0.34647106 C463.21160315 -0.33927488 469.58357435 -0.3402761 475.95578766 -0.36288166 C481.7836114 -0.38335871 487.61095172 -0.38097719 493.43876958 -0.36000682 C495.5524268 -0.35649029 497.66611811 -0.36151239 499.77973056 -0.37571125 C502.64307546 -0.39371434 505.5046907 -0.3811978 508.36798096 -0.36076355 C509.61196305 -0.37960861 509.61196305 -0.37960861 510.8810761 -0.39883438 C515.12383952 -0.33358273 516.73794658 -0.08165662 520.2225399 2.58792633 C522.18399048 5.26006222 522.18399048 5.26006222 522.38320923 8.63506222 C520.83134826 13.32602957 518.46009358 15.83335503 514.99649048 19.26006222 C513.71355505 20.58000223 512.43101401 21.90032567 511.14883423 23.22099972 C510.48996216 23.88970089 509.83109009 24.55840206 509.1522522 25.24736691 C506.06321034 28.40614402 503.06364327 31.64627518 500.05899048 34.88506222 C498.88861443 36.13915222 497.71804353 37.39306041 496.54727173 38.64678097 C493.43510286 41.9861284 490.33859763 45.33964599 487.24649048 48.69756222 C481.52789593 54.90643145 475.75430698 61.06293017 469.97695923 67.21709347 C464.61418361 72.9303594 459.27100988 78.66188646 453.92666626 84.39238644 C452.15793726 86.2879842 450.38793799 88.1823881 448.61758423 90.07646847 C448.02872437 90.7069006 447.4398645 91.33733273 446.8331604 91.98686886 C445.65859088 93.24354672 444.48298632 94.49925805 443.30630493 95.7539587 C440.47520236 98.77824521 437.67126759 101.82054563 434.91836548 104.91631222 C434.39387817 105.50074093 433.86939087 106.08516964 433.32901001 106.68730831 C432.35829014 107.77153349 431.39491476 108.86240977 430.4413147 109.96172237 C425.94731919 114.95886242 420.74207237 119.36759644 413.81701642 119.88680804 C412.20596248 119.91292681 410.59432281 119.91218198 408.9832201 119.88926792 C407.63696154 119.90016873 407.63696154 119.90016873 406.26350585 119.91128975 C403.25812203 119.92952745 400.25401632 119.91218998 397.24864197 119.89498043 C395.07152456 119.90074206 392.89441202 119.90868345 390.71730965 119.91861665 C384.73627585 119.93950671 378.75564048 119.92916472 372.77460515 119.91368556 C366.32398286 119.90238518 359.87342967 119.91982814 353.42282104 119.93358517 C341.51785935 119.95552038 329.61302394 119.95271099 317.70805482 119.93902783 C306.71193877 119.9264512 295.71586931 119.92316601 284.71974754 119.92914104 C283.99041833 119.92952297 283.26108912 119.9299049 282.50965902 119.93029839 C279.54912449 119.93185507 276.58858999 119.93344707 273.62805551 119.93509721 C245.85802658 119.95039132 218.08807865 119.93652548 190.31806222 119.90961273 C165.63880679 119.88587727 140.95968034 119.88801419 116.28042603 119.91191769 C88.5567431 119.93868013 60.83313169 119.94931417 33.10943764 119.93385637 C30.15522049 119.93225275 27.20100331 119.93068856 24.24678612 119.92914104 C23.15566934 119.92854796 23.15566934 119.92854796 22.0425098 119.9279429 C11.0504436 119.92225184 0.05842906 119.92891362 -10.93362999 119.94153881 C-23.42784117 119.95581773 -35.92189483 119.95181523 -48.41608819 119.92513509 C-54.79441549 119.91196506 -61.17248049 119.90689908 -67.55080605 119.92338085 C-73.38408256 119.93822667 -79.21685243 119.93018073 -85.05008266 119.90349309 C-87.16566036 119.89788542 -89.28128044 119.90079932 -91.39683112 119.91287203 C-94.26275853 119.92797852 -97.12692846 119.91258619 -99.99276257 119.88926792 C-100.82283076 119.90097375 -101.65289896 119.91267958 -102.50812075 119.92474014 C-106.75363679 119.85523476 -108.36851733 119.60385094 -111.85183746 116.92776811 C-113.81600952 114.26006222 -113.81600952 114.26006222 -114.06600952 110.94756222 C-112.36540368 105.93077499 -109.5107687 102.96954155 -105.81600952 99.26006222 C-105.23077515 98.67224972 -104.64554077 98.08443722 -104.04257202 97.47881222 C-102.88759978 96.3290661 -101.72870612 95.18324638 -100.56600952 94.04131222 C-98.73358465 92.17616547 -97.02247817 90.24078476 -95.31600952 88.26006222 C-93.07043012 85.65358613 -90.7704944 83.17071701 -88.31600952 80.76006222 C-85.8821122 78.36953055 -83.60245393 75.90959959 -81.37850952 73.32256222 C-78.33921301 69.79371459 -75.10584105 66.53001195 -71.78866577 63.26396847 C-69.24263123 60.6776007 -66.89579396 57.94470942 -64.53085327 55.19365597 C-62.31553572 52.69574666 -59.94702782 50.37981233 -57.56600952 48.04131222 C-55.73358465 46.17616547 -54.02247817 44.24078476 -52.31600952 42.26006222 C-49.5336162 39.03049855 -46.60581524 36.02683569 -43.56600952 33.04131222 C-41.73358465 31.17616547 -40.02247817 29.24078476 -38.31600952 27.26006222 C-35.5341277 24.03109224 -32.60872663 21.02680956 -29.56600952 18.04521847 C-27.72265526 16.16483254 -26.02129031 14.203551 -24.31600952 12.19756222 C-16.99318842 3.7418383 -11.47465347 -0.05292054 0 0 Z " fill="#49B9C5" transform="translate(195.81600952148438,170.7399377822876)"/>
</svg>
