<svg xmlns="http://www.w3.org/2000/svg" xmlns:xlink="http://www.w3.org/1999/xlink" width="800" zoomAndPan="magnify" viewBox="0 0 600 599.999999" height="800" preserveAspectRatio="xMidYMid meet" version="1.0"><path fill="#00aeef" d="M 356.8125 242.253906 C 355.046875 243.246094 353.253906 244.195312 351.519531 245.234375 C 323.761719 261.871094 295.921875 278.367188 268.316406 295.242188 C 258.972656 300.953125 249.542969 302.367188 239.039062 299.578125 C 183.878906 284.929688 128.695312 270.363281 73.492188 255.871094 C 65.058594 253.644531 60.609375 248.617188 60.335938 241.289062 C 60.058594 233.949219 64.125 228.5625 72.203125 225.597656 C 202.621094 177.808594 333.035156 130.019531 463.449219 82.230469 C 481.316406 75.683594 499.21875 69.234375 517.015625 62.503906 C 523.644531 59.996094 529.652344 60.152344 534.765625 65.273438 C 539.878906 70.394531 539.933594 76.398438 537.496094 83.035156 C 496.347656 195.066406 455.257812 307.117188 414.222656 419.195312 C 400.949219 455.410156 387.679688 491.628906 374.410156 527.847656 C 371.460938 535.902344 366.015625 539.984375 358.691406 539.679688 C 351.367188 539.375 346.324219 534.921875 344.101562 526.5 C 329.578125 471.484375 315.050781 416.46875 300.527344 361.453125 C 297.582031 350.375 299.136719 340.601562 305.207031 330.769531 C 321.933594 303.679688 338.113281 276.253906 354.503906 248.953125 C 355.636719 247.066406 356.695312 245.136719 357.789062 243.226562 Z M 356.8125 242.253906 " fill-opacity="1" fill-rule="nonzero"/></svg>