<svg xmlns="http://www.w3.org/2000/svg" xmlns:xlink="http://www.w3.org/1999/xlink" width="800" zoomAndPan="magnify" viewBox="0 0 600 599.999999" height="800" preserveAspectRatio="xMidYMid meet" version="1.0"><path fill="#000000" d="M 108.417969 60 L 490.984375 60 C 517.882812 60 540 82.117188 540 108.417969 L 540 490.984375 C 540 517.882812 517.882812 540 490.984375 540 L 108.417969 540 C 82.117188 540 60 517.882812 60 490.984375 L 60 108.417969 C 60 82.117188 82.117188 60 108.417969 60 Z M 299.699219 244.109375 L 385.777344 122.167969 L 463.488281 122.167969 L 338.554688 299.699219 L 463.488281 477.832031 L 385.777344 477.832031 L 299.699219 355.292969 L 214.222656 477.832031 L 136.511719 477.832031 L 260.847656 299.699219 L 136.511719 122.167969 L 214.222656 122.167969 Z M 299.699219 244.109375 " fill-opacity="1" fill-rule="evenodd"/></svg>